<svg aria-hidden="true" xmlns="http://www.w3.org/2000/svg" xmlns:xlink="http://www.w3.org/1999/xlink"><symbol viewBox="0 0 20 20" id="header-icon-arrow" xmlns="http://www.w3.org/2000/svg">
<g clip-path="url(#aclip0_74_146)">
<path fill-rule="evenodd" clip-rule="evenodd" d="M11.6664 1.6666C11.6663 1.49281 11.7204 1.32331 11.8214 1.18184C11.9223 1.04037 12.065 0.933992 12.2294 0.877603C12.3938 0.821215 12.5717 0.817633 12.7382 0.86736C12.9047 0.917088 13.0515 1.01763 13.1581 1.15493L18.9914 8.65493C19.1052 8.80122 19.167 8.98126 19.167 9.1666C19.167 9.35193 19.1052 9.53198 18.9914 9.67826L13.1581 17.1783C13.0515 17.3156 12.9047 17.4161 12.7382 17.4658C12.5717 17.5156 12.3938 17.512 12.2294 17.4556C12.065 17.3992 11.9223 17.2928 11.8214 17.1514C11.7204 17.0099 11.6663 16.8404 11.6664 16.6666V13.3416C7.18391 13.4349 5.03058 14.2858 3.94891 15.2108C2.92058 16.0899 2.73225 17.1241 2.53642 18.2074L2.48558 18.4866C2.44818 18.6864 2.33908 18.8656 2.1788 18.9905C2.01851 19.1154 1.8181 19.1775 1.61525 19.165C1.41241 19.1525 1.22112 19.0663 1.07738 18.9227C0.933638 18.779 0.847349 18.5878 0.834747 18.3849C0.692247 16.0949 0.906414 12.7766 2.52391 10.0008C4.09391 7.3066 6.92141 5.23493 11.6664 5.01826V1.6666Z"/>
</g>
<defs>
<clipPath id="aclip0_74_146">
<rect width="20" height="20" transform="matrix(-1 0 0 1 20 0)"/>
</clipPath>
</defs>
</symbol><symbol viewBox="0 0 100 84" id="services-steps" xmlns="http://www.w3.org/2000/svg">
<path d="M25.4651 20.2766L20.2496 0.811929L0.784916 6.02746L21.6471 83.8861L99.5057 63.0239L94.2901 43.5593L74.8255 48.7748L69.6099 29.3102L50.1453 34.5257L44.9298 15.061L25.4651 20.2766Z"/>
</symbol><symbol viewBox="0 0 24 24" id="team-icon-link" xmlns="http://www.w3.org/2000/svg">
<path fill-rule="evenodd" clip-rule="evenodd" d="M5 2H7C7.55228 2 8 2.44772 8 3C8 3.51284 7.61396 3.93551 7.11662 3.99327L7 4H5C4.48716 4 4.06449 4.38604 4.00673 4.88338L4 5V19C4 19.5128 4.38604 19.9355 4.88338 19.9933L5 20H19C19.5128 20 19.9355 19.614 19.9933 19.1166L20 19V17C20 16.4477 20.4477 16 21 16C21.5128 16 21.9355 16.386 21.9933 16.8834L22 17V19C22 20.5977 20.7511 21.9037 19.1763 21.9949L19 22H5C3.40232 22 2.09634 20.7511 2.00509 19.1763L2 19V5C2 3.40232 3.24892 2.09634 4.82373 2.00509L5 2H7H5ZM21 2L21.081 2.003L21.2007 2.02024L21.3121 2.04974L21.4232 2.09367L21.5207 2.146L21.6167 2.21279L21.7071 2.29289L21.8037 2.40469L21.8753 2.51594L21.9063 2.5769L21.9401 2.65835L21.9642 2.73401L21.9931 2.8819L22 3V9C22 9.55228 21.5523 10 21 10C20.4477 10 20 9.55228 20 9V5.414L13.7071 11.7071C13.3466 12.0676 12.7794 12.0953 12.3871 11.7903L12.2929 11.7071C11.9324 11.3466 11.9047 10.7794 12.2097 10.3871L12.2929 10.2929L18.584 4H15C14.4477 4 14 3.55228 14 3C14 2.44772 14.4477 2 15 2H21Z"/>
</symbol></svg>