<svg aria-hidden="true" xmlns="http://www.w3.org/2000/svg" xmlns:xlink="http://www.w3.org/1999/xlink"><symbol viewBox="0 0 20 20" id="header-icon-arrow" xmlns="http://www.w3.org/2000/svg">
<g clip-path="url(#aclip0_74_146)">
<path fill-rule="evenodd" clip-rule="evenodd" d="M11.6664 1.6666C11.6663 1.49281 11.7204 1.32331 11.8214 1.18184C11.9223 1.04037 12.065 0.933992 12.2294 0.877603C12.3938 0.821215 12.5717 0.817633 12.7382 0.86736C12.9047 0.917088 13.0515 1.01763 13.1581 1.15493L18.9914 8.65493C19.1052 8.80122 19.167 8.98126 19.167 9.1666C19.167 9.35193 19.1052 9.53198 18.9914 9.67826L13.1581 17.1783C13.0515 17.3156 12.9047 17.4161 12.7382 17.4658C12.5717 17.5156 12.3938 17.512 12.2294 17.4556C12.065 17.3992 11.9223 17.2928 11.8214 17.1514C11.7204 17.0099 11.6663 16.8404 11.6664 16.6666V13.3416C7.18391 13.4349 5.03058 14.2858 3.94891 15.2108C2.92058 16.0899 2.73225 17.1241 2.53642 18.2074L2.48558 18.4866C2.44818 18.6864 2.33908 18.8656 2.1788 18.9905C2.01851 19.1154 1.8181 19.1775 1.61525 19.165C1.41241 19.1525 1.22112 19.0663 1.07738 18.9227C0.933638 18.779 0.847349 18.5878 0.834747 18.3849C0.692247 16.0949 0.906414 12.7766 2.52391 10.0008C4.09391 7.3066 6.92141 5.23493 11.6664 5.01826V1.6666Z"/>
</g>
<defs>
<clipPath id="aclip0_74_146">
<rect width="20" height="20" transform="matrix(-1 0 0 1 20 0)"/>
</clipPath>
</defs>
</symbol><symbol viewBox="0 0 100 84" id="services-steps" xmlns="http://www.w3.org/2000/svg">
<path d="M25.4651 20.2766L20.2496 0.811929L0.784916 6.02746L21.6471 83.8861L99.5057 63.0239L94.2901 43.5593L74.8255 48.7748L69.6099 29.3102L50.1453 34.5257L44.9298 15.061L25.4651 20.2766Z"/>
</symbol></svg>